<?xml version="1.0" standalone="no"?>
<!DOCTYPE svg PUBLIC "-//W3C//DTD SVG 20010904//EN"
 "http://www.w3.org/TR/2001/REC-SVG-20010904/DTD/svg10.dtd">
<svg version="1.0" xmlns="http://www.w3.org/2000/svg"
 width="275.000000pt" height="183.000000pt" viewBox="0 0 275.000000 183.000000"
 preserveAspectRatio="xMidYMid meet">

<g transform="translate(0.000000,183.000000) scale(0.100000,-0.100000)"
fill="#000000" stroke="none">
<path d="M1283 1741 c-60 -15 -124 -119 -130 -211 l-4 -55 19 51 c30 84 45
101 109 119 63 19 175 14 201 -8 19 -16 59 -78 65 -103 3 -13 5 -9 6 11 0 17
-8 45 -19 63 -11 18 -20 37 -20 42 0 16 -43 61 -71 75 -34 18 -115 26 -156 16z"/>
<path d="M1243 1510 c-13 -5 -24 -14 -24 -20 -5 -42 -3 -45 26 -43 23 2 27 0
15 -8 -11 -8 -4 -9 25 -4 52 9 60 17 43 52 -14 30 -46 39 -85 23z m36 -24
c-12 -10 -60 -16 -54 -6 3 5 18 10 32 10 15 0 24 -2 22 -4z"/>
<path d="M1390 1500 c0 -5 4 -10 10 -10 5 0 7 -7 4 -15 -4 -8 -1 -22 6 -30 14
-17 35 -21 25 -5 -6 10 7 14 33 11 6 -1 12 3 12 9 0 6 -3 9 -8 6 -4 -2 -18 2
-32 10 l-25 13 30 1 c23 0 27 3 15 10 -20 13 -70 13 -70 0z"/>
<path d="M1122 1430 c0 -14 2 -19 5 -12 2 6 2 18 0 25 -3 6 -5 1 -5 -13z"/>
<path d="M1135 1400 c-6 -9 11 -50 20 -50 3 0 5 14 5 30 0 29 -13 40 -25 20z"/>
<path d="M1271 1353 c-6 -21 -12 -63 -14 -93 -1 -30 -6 -58 -11 -62 -15 -10
21 -39 67 -54 l42 -14 -45 6 c-25 3 -49 10 -54 15 -17 16 -29 10 -15 -8 12
-15 12 -16 -3 -10 -25 9 -12 -16 20 -40 35 -25 85 -51 62 -31 -14 11 -16 21
-11 44 0 3 9 -2 19 -13 9 -10 14 -14 10 -9 -13 16 -9 36 7 36 8 0 15 3 15 8 0
4 20 15 44 25 35 14 43 22 39 38 -4 15 -8 17 -20 8 -10 -9 -20 -9 -39 0 -14 6
-36 11 -49 11 -33 0 -65 33 -58 59 3 12 11 21 18 21 8 0 11 8 8 20 -5 17 0 20
30 20 20 0 39 5 42 10 3 6 -3 10 -14 10 -12 0 -21 5 -21 10 0 6 -9 10 -20 10
-11 0 -20 5 -20 10 0 24 -18 7 -29 -27z m19 -249 c0 -8 -4 -12 -10 -9 -5 3
-10 13 -10 21 0 8 5 12 10 9 6 -3 10 -13 10 -21z"/>
<path d="M1423 1328 c3 -9 3 -18 -1 -20 -5 -2 0 -11 10 -20 17 -17 18 -17 18
6 0 13 -8 30 -17 37 -15 12 -16 12 -10 -3z"/>
<path d="M1318 1313 c7 -3 16 -2 19 1 4 3 -2 6 -13 5 -11 0 -14 -3 -6 -6z"/>
<path d="M1332 1258 c5 -15 28 -18 29 -3 0 6 -7 12 -17 13 -10 3 -15 -1 -12
-10z"/>
<path d="M1163 1094 c-10 -36 -10 -380 0 -390 13 -14 15 1 8 81 -4 44 -4 136
0 205 8 127 6 154 -8 104z"/>
<path d="M1531 1104 c0 -11 3 -14 6 -6 3 7 2 16 -1 19 -3 4 -6 -2 -5 -13z"/>
<path d="M1541 1064 c0 -11 3 -14 6 -6 3 7 2 16 -1 19 -3 4 -6 -2 -5 -13z"/>
<path d="M1281 1026 c-11 -12 -7 -22 19 -55 l32 -40 -16 -84 -17 -85 34 -88
c19 -49 37 -96 39 -104 3 -8 19 30 36 84 18 55 30 101 28 103 -2 2 -8 -10 -14
-26 -13 -36 -15 -37 -33 -14 -12 14 -12 15 0 9 10 -7 12 -3 6 14 -5 17 -4 21
6 15 7 -5 5 2 -4 16 -9 13 -17 39 -17 59 0 19 -7 48 -15 64 -13 24 -13 31 -3
38 7 4 8 8 3 8 -16 0 -34 67 -21 80 7 7 5 10 -6 10 -9 0 -23 2 -31 5 -7 3 -19
-1 -26 -9z m110 -333 c13 -16 12 -17 -3 -4 -17 13 -22 21 -14 21 2 0 10 -8 17
-17z"/>
<path d="M1414 1016 c0 -14 5 -21 10 -16 5 5 15 6 22 3 17 -6 18 9 2 25 -20
20 -36 14 -34 -12z"/>
<path d="M1551 1030 c0 -8 4 -33 9 -55 8 -37 7 -42 -18 -62 -15 -12 -22 -22
-16 -23 6 0 17 7 24 15 16 19 44 19 60 0 7 -8 15 -35 18 -60 2 -25 9 -45 14
-45 5 0 7 8 5 18 -3 9 -8 34 -11 54 -4 24 -17 45 -34 58 -17 14 -31 38 -38 68
-7 26 -12 40 -13 32z"/>
<path d="M1480 854 c-12 -32 -13 -54 -1 -54 5 0 11 18 13 40 4 47 1 50 -12 14z"/>
</g>
</svg>
